<mxfile host="app.diagrams.net" modified="2024-09-24T22:04:26.718Z" agent="Mozilla/5.0 (Windows NT 10.0; Win64; x64) AppleWebKit/537.36 (KHTML, like Gecko) Chrome/128.0.0.0 Safari/537.36 Edg/128.0.0.0" version="24.6.4" etag="W560SFqFf1HxJx_6PaY3" type="github">
  <diagram name="第 1 页" id="q62e05F8pmmnhwVgKGRu">
    <mxGraphModel>
      <root>
        <mxCell id="0" />
        <mxCell id="1" parent="0" />
      </root>
    </mxGraphModel>
  </diagram>
</mxfile>
